<svg width="74" height="74" viewBox="0 0 74 74" fill="none" xmlns="http://www.w3.org/2000/svg">
<path d="M65.2818 15.647C61.9251 12.3001 57.3803 10.4176 52.6402 10.4105C47.9 10.4035 43.3497 12.2725 39.983 15.6094L36.9999 18.3786L34.0168 15.6094C30.6512 12.2523 26.0899 10.3696 21.3363 10.3756C16.5826 10.3815 12.026 12.2756 8.66889 15.6412C5.31177 19.0067 3.42911 23.5681 3.43507 28.3217C3.44104 33.0754 5.33514 37.6319 8.70069 40.9891L34.5284 67.1926C34.8512 67.5203 35.2359 67.7806 35.6602 67.9583C36.0845 68.1359 36.5399 68.2274 36.9999 68.2274C37.4599 68.2274 37.9153 68.1359 38.3396 67.9583C38.7639 67.7806 39.1486 67.5203 39.4714 67.1926L65.2818 41.0064C66.9468 39.3421 68.2676 37.3661 69.1687 35.1912C70.0699 33.0163 70.5337 30.6852 70.5337 28.331C70.5337 25.9768 70.0699 23.6457 69.1687 21.4708C68.2676 19.296 66.9468 17.3199 65.2818 15.6556V15.647ZM60.3677 36.1097L36.9999 59.807L13.6234 36.0895C11.5705 34.028 10.4192 31.2364 10.4223 28.3271C10.4253 25.4178 11.5823 22.6285 13.6395 20.5713C15.6967 18.5141 18.486 17.3571 21.3952 17.3541C24.3045 17.3511 27.0962 18.5023 29.1576 20.5552C29.1866 20.5841 29.2155 20.6131 29.2473 20.6391L34.6354 25.6572C35.2774 26.2554 36.1224 26.588 36.9999 26.588C37.8774 26.588 38.7224 26.2554 39.3644 25.6572L44.7526 20.6391C44.7844 20.6131 44.8133 20.5841 44.8422 20.5552C45.8635 19.5364 47.0755 18.7287 48.409 18.1782C49.7424 17.6278 51.1713 17.3453 52.6139 17.3471C54.0565 17.3488 55.4847 17.6347 56.8168 18.1884C58.1489 18.7421 59.359 19.5527 60.3778 20.574C61.3967 21.5953 62.2044 22.8073 62.7549 24.1408C63.3053 25.4743 63.5877 26.9031 63.586 28.3458C63.5842 29.7884 63.2984 31.2165 62.7447 32.5487C62.191 33.8808 61.3804 35.0908 60.3591 36.1097H60.3677Z" fill="#F44336"/>
</svg>
