<svg width="39" height="40" viewBox="0 0 39 40" fill="none" xmlns="http://www.w3.org/2000/svg">
<path d="M20.2959 4.49578L34.6709 18.8708C35.6771 19.877 34.9648 21.5972 33.5417 21.5972H31.9444V31.1806C31.9444 32.4514 31.4396 33.6702 30.541 34.5688C29.6424 35.4674 28.4236 35.9722 27.1528 35.9722H25.5556V24.7917C25.5556 23.5695 25.0886 22.3934 24.2502 21.5042C23.4117 20.6149 22.2651 20.0797 21.045 20.008L20.7639 20H17.5694C16.2986 20 15.0798 20.5049 14.1812 21.4035C13.2826 22.3021 12.7778 23.5209 12.7778 24.7917V35.9722H11.1806C9.90972 35.9722 8.69094 35.4674 7.79233 34.5688C6.89372 33.6702 6.38889 32.4514 6.38889 31.1806V21.5972H4.79166C3.37014 21.5972 2.65618 19.877 3.66243 18.8708L18.0374 4.49578C18.337 4.19635 18.7431 4.02814 19.1667 4.02814C19.5902 4.02814 19.9964 4.19635 20.2959 4.49578ZM20.7639 23.1945C21.1875 23.1945 21.5938 23.3627 21.8933 23.6623C22.1928 23.9618 22.3611 24.3681 22.3611 24.7917V35.9722H15.9722V24.7917C15.9723 24.4005 16.1159 24.0229 16.3759 23.7305C16.6358 23.4382 16.994 23.2514 17.3826 23.2056L17.5694 23.1945H20.7639Z" fill="currentColor"/>
</svg>
