<svg width="38" height="35" viewBox="0 0 38 35" fill="none" xmlns="http://www.w3.org/2000/svg">
<path d="M0.5 6.95834C0.5 5.20128 1.19799 3.51619 2.44042 2.27376C3.68285 1.03133 5.36794 0.333344 7.125 0.333344H24.7917C26.5487 0.333344 28.2338 1.03133 29.4762 2.27376C30.7187 3.51619 31.4167 5.20128 31.4167 6.95834V14.0449C29.251 13.431 26.9573 13.431 24.7917 14.0449V8.06251C24.7917 7.76967 24.6753 7.48882 24.4683 7.28175C24.2612 7.07468 23.9803 6.95834 23.6875 6.95834C23.3947 6.95834 23.1138 7.07468 22.9067 7.28175C22.6997 7.48882 22.5833 7.76967 22.5833 8.06251V14.9106C20.1471 16.1539 18.2018 18.1832 17.0625 20.6699V16.8958C17.0625 16.603 16.9462 16.3222 16.7391 16.1151C16.532 15.908 16.2512 15.7917 15.9583 15.7917C15.6655 15.7917 15.3846 15.908 15.1776 16.1151C14.9705 16.3222 14.8542 16.603 14.8542 16.8958V23.5208C14.854 23.6702 14.8842 23.8181 14.9428 23.9555C15.0014 24.0928 15.0873 24.2169 15.1953 24.3201C15.3033 24.4234 15.4311 24.5036 15.571 24.556C15.7108 24.6084 15.8599 24.6319 16.0091 24.625C15.8004 26.9096 16.2429 29.2065 17.2855 31.25H7.125C5.36794 31.25 3.68285 30.552 2.44042 29.3096C1.19799 28.0672 0.5 26.3821 0.5 24.625V6.95834ZM8.22917 11.375C7.93632 11.375 7.65547 11.4913 7.4484 11.6984C7.24133 11.9055 7.125 12.1863 7.125 12.4792V23.5208C7.125 23.8137 7.24133 24.0945 7.4484 24.3016C7.65547 24.5087 7.93632 24.625 8.22917 24.625C8.52201 24.625 8.80286 24.5087 9.00993 24.3016C9.217 24.0945 9.33333 23.8137 9.33333 23.5208V12.4792C9.33333 12.1863 9.217 11.9055 9.00993 11.6984C8.80286 11.4913 8.52201 11.375 8.22917 11.375ZM22.7291 18.9761C22.8881 19.5428 22.9323 20.1356 22.8589 20.7197C22.7856 21.3037 22.5963 21.8672 22.3021 22.377C22.0079 22.8868 21.6147 23.3327 21.1458 23.6884C20.6768 24.0441 20.1414 24.3025 19.5712 24.4483L18.5509 24.7089C18.4772 25.4554 18.4846 26.2077 18.573 26.9526L19.3459 27.1359C19.9314 27.2743 20.4824 27.531 20.9652 27.89C21.448 28.249 21.8523 28.7029 22.1534 29.2238C22.4545 29.7447 22.6459 30.3216 22.7161 30.9191C22.7862 31.5167 22.7335 32.1222 22.5612 32.6987L22.2808 33.6328C22.852 34.0833 23.4667 34.4639 24.1247 34.7745L24.8425 34.0148C25.2556 33.5773 25.7539 33.2289 26.3066 32.9909C26.8593 32.7528 27.4548 32.6303 28.0565 32.6307C28.6583 32.6311 29.2536 32.7545 29.806 32.9933C30.3584 33.232 30.8561 33.5812 31.2687 34.0193L32.0129 34.8098C32.6607 34.511 33.2658 34.1444 33.8282 33.7101L33.4837 32.4823C33.3246 31.9155 33.2805 31.3227 33.3538 30.7387C33.4271 30.1547 33.6165 29.5912 33.9107 29.0814C34.2049 28.5715 34.598 28.1257 35.067 27.77C35.536 27.4143 36.0713 27.1559 36.6416 27.01L37.6574 26.7494C37.7313 26.0022 37.7239 25.2492 37.6353 24.5035L36.8668 24.3225C36.2811 24.184 35.7298 23.9274 35.2469 23.5682C34.7639 23.209 34.3595 22.7549 34.0584 22.2338C33.7573 21.7126 33.5659 21.1354 33.4959 20.5376C33.4259 19.9398 33.4789 19.3341 33.6515 18.7575L33.9297 17.8278C33.3609 17.3765 32.7422 16.9919 32.0858 16.6816L31.3681 17.4413C30.9551 17.8789 30.4569 18.2276 29.9043 18.4658C29.3517 18.704 28.7563 18.8268 28.1545 18.8266C27.5527 18.8263 26.9573 18.7032 26.4049 18.4646C25.8524 18.226 25.3546 17.877 24.9418 17.4391L24.1976 16.6485C23.5534 16.9454 22.9446 17.3136 22.3824 17.7461L22.7291 18.9761ZM28.1042 27.9375C27.5185 27.9375 26.9568 27.7048 26.5426 27.2907C26.1285 26.8766 25.8958 26.3149 25.8958 25.7292C25.8958 25.1435 26.1285 24.5818 26.5426 24.1676C26.9568 23.7535 27.5185 23.5208 28.1042 23.5208C28.6899 23.5208 29.2516 23.7535 29.6657 24.1676C30.0798 24.5818 30.3125 25.1435 30.3125 25.7292C30.3125 26.3149 30.0798 26.8766 29.6657 27.2907C29.2516 27.7048 28.6899 27.9375 28.1042 27.9375Z" fill="currentColor"/>
</svg>
