<svg width="41" height="40" viewBox="0 0 41 40" fill="none" xmlns="http://www.w3.org/2000/svg">
<path d="M29.1666 2C29.7186 2 30.1666 2.444 30.1666 2.994C30.1666 3.92 30.3126 5.432 31.1106 6.686C31.8606 7.862 33.2766 8.958 36.1666 8.958C36.7186 8.958 37.1666 9.402 37.1666 9.952C37.165 10.2162 37.059 10.469 36.8716 10.6552C36.6843 10.8415 36.4308 10.946 36.1666 10.946C35.4286 10.946 33.8866 11.392 32.5266 12.43C31.2006 13.44 30.1666 14.912 30.1666 16.91C30.1645 17.1738 30.0582 17.4261 29.8709 17.6119C29.6836 17.7978 29.4305 17.902 29.1666 17.902C28.9024 17.902 28.649 17.7975 28.4616 17.6112C28.2743 17.425 28.1682 17.1722 28.1666 16.908C28.1666 15.908 27.8566 14.386 26.9546 13.14C26.0906 11.948 24.6406 10.946 22.1666 10.946C21.9024 10.946 21.649 10.8415 21.4616 10.6552C21.2743 10.469 21.1682 10.2162 21.1666 9.952C21.1666 9.402 21.6146 8.958 22.1666 8.958C23.1906 8.958 24.6766 8.938 25.9126 8.224C27.0406 7.57 28.1666 6.2 28.1666 2.994C28.1666 2.444 28.6146 2 29.1666 2ZM12.4566 24.332L10.5926 31.124C10.2526 32.364 10.7466 33.814 12.0726 34.404C15.3486 35.858 21.3726 37.106 28.0126 34.422C29.4326 33.846 30.0546 32.294 29.6406 30.922L27.6906 24.464C25.4903 26.0192 22.8611 26.8523 20.1666 26.848C17.3941 26.853 14.6926 25.9714 12.4566 24.332ZM26.0166 4.666C25.9246 5.102 25.8026 5.426 25.6806 5.664C25.5126 6.01635 25.2421 6.3098 24.9046 6.506C24.1966 6.916 23.2426 6.97 22.1666 6.97C20.5106 6.97 19.1666 8.304 19.1666 9.95C19.1666 11.598 20.5106 12.932 22.1666 12.932C23.9886 12.932 24.8386 13.62 25.3326 14.302C25.9366 15.136 26.1666 16.226 26.1666 16.908C26.1675 17.32 26.2536 17.7273 26.4194 18.1045C26.5851 18.4816 26.8271 18.8205 27.13 19.0997C27.4329 19.3789 27.7902 19.5926 28.1796 19.7272C28.5689 19.8618 28.9819 19.9145 29.3926 19.882C28.3905 21.4139 27.0218 22.6715 25.4108 23.5408C23.7997 24.41 21.9972 24.8635 20.1666 24.86C14.0906 24.86 9.16663 19.964 9.16663 13.926C9.16663 7.888 14.0906 2.994 20.1666 2.994C22.3166 2.994 24.3206 3.606 26.0146 4.666" fill="currentColor"/>
</svg>
