<svg width="39" height="40" viewBox="0 0 39 40" fill="none" xmlns="http://www.w3.org/2000/svg">
<path d="M25.5556 32.7778V35.9722H6.3889C4.63196 35.9722 3.19446 34.5347 3.19446 32.7778V12.0139H6.3889V32.7778H25.5556ZM31.9445 4.0278H12.7778C11.0208 4.0278 9.58335 5.4653 9.58335 7.22225V26.3889C9.58335 28.1459 11.0208 29.5834 12.7778 29.5834H31.9445C33.7014 29.5834 35.1389 28.1459 35.1389 26.3889V7.22225C35.1389 5.4653 33.7014 4.0278 31.9445 4.0278ZM23.9583 23.1945H20.7639V20H23.9583V23.1945ZM26.8333 14.8889C26.3542 15.5278 25.7153 16.007 25.0764 16.3264C24.757 16.6459 24.4375 16.8056 24.2778 17.125C23.9583 17.4445 23.9583 17.9236 23.9583 18.4028H20.7639C20.7639 17.6042 20.9236 16.9653 21.2431 16.4861C21.5625 16.007 22.0417 15.5278 22.8403 15.0486C23.3195 14.7292 23.6389 14.4097 23.7986 14.0903C24.1181 13.7709 24.1181 13.2917 24.1181 12.8125C24.1181 12.3334 23.9583 11.8542 23.6389 11.5347C23.3195 11.2153 23 11.0556 22.3611 11.0556C21.882 11.0556 21.5625 11.2153 21.2431 11.375C20.9236 11.6945 20.7639 12.0139 20.7639 12.4931H17.7292C17.7292 11.2153 18.0486 10.257 19.007 9.61808C20.125 9.13891 21.2431 8.81947 22.6806 8.81947C24.1181 8.81947 25.3958 9.13891 26.1945 9.93752C26.9931 10.7361 27.4722 11.6945 27.4722 12.8125C27.4722 13.6111 27.1528 14.25 26.8333 14.8889Z" fill="currentColor"/>
</svg>
