<svg width="30" height="34" viewBox="0 0 30 34" fill="none" xmlns="http://www.w3.org/2000/svg">
<g clip-path="url(#clip0_6_117)">
<path d="M0.333374 6.58334C0.333374 3.13282 3.13285 0.333344 6.58337 0.333344H27.4167C28.569 0.333344 29.5 1.26433 29.5 2.41668V23.25C29.5 24.4024 28.569 25.3333 27.4167 25.3333V29.5C28.569 29.5 29.5 30.431 29.5 31.5833C29.5 32.7357 28.569 33.6667 27.4167 33.6667H6.58337C3.13285 33.6667 0.333374 30.8672 0.333374 27.4167V6.58334ZM4.50004 27.4167C4.50004 28.569 5.43103 29.5 6.58337 29.5H23.25V25.3333H6.58337C5.43103 25.3333 4.50004 26.2643 4.50004 27.4167ZM10.3855 12.1563L9.00525 10.7761C8.80994 11.4336 8.67322 12.1172 8.67322 12.8333C8.67322 12.8464 8.67322 12.8659 8.67973 12.8854C8.68624 12.905 8.68624 12.918 8.68624 12.9375L11.0886 15.0469C11.2513 15.1836 11.3099 15.4245 11.2383 15.6263C11.1537 15.8216 10.9714 15.9583 10.75 15.9583C10.6263 15.9518 10.5026 15.9063 10.4115 15.8281L8.87504 14.487C9.63025 17.7162 12.5013 20.125 15.9584 20.125C19.4154 20.125 22.293 17.7162 23.0482 14.487L21.5118 15.8281C21.4206 15.9063 21.2969 15.9583 21.1667 15.9583C21.0235 15.9518 20.8802 15.8867 20.7761 15.7761C20.698 15.6784 20.6524 15.5547 20.6459 15.4375C20.6524 15.2943 20.7175 15.1511 20.8282 15.0469L23.2435 12.931C23.2435 12.9115 23.2435 12.8984 23.25 12.8789C23.2565 12.8594 23.2565 12.8464 23.2565 12.8268C23.2565 12.1107 23.1198 11.4271 22.9245 10.7695L21.5443 12.1497C21.3425 12.3516 21.017 12.3516 20.8086 12.1497C20.6003 11.9479 20.6068 11.6224 20.8086 11.4206L22.5274 9.69532C21.9935 8.58855 21.1927 7.63152 20.1901 6.92188C20.0144 6.79819 19.7865 7.01303 19.8646 7.21485C20.418 8.67319 20.099 10.3399 19.0183 11.4857C18.8099 11.707 18.7839 12.0651 18.9597 12.3125C19.5977 13.224 19.7865 14.3893 19.448 15.4701C19.0638 16.7331 18.0157 17.6901 16.7201 17.9636L16.6289 15.7305L17.4493 16.2904C17.4883 16.3164 17.5469 16.3294 17.599 16.3294C17.6967 16.3294 17.7748 16.2774 17.8269 16.1992C17.8789 16.1211 17.8659 16.0169 17.8204 15.9388L17.2605 15.0078L18.4323 14.7734C18.5495 14.7474 18.6342 14.6367 18.6342 14.513C18.6342 14.3893 18.543 14.2852 18.4323 14.2591L17.2605 14.0182L17.8138 13.0872C17.8659 13.0091 17.8724 12.8984 17.8204 12.8203C17.7683 12.7422 17.6901 12.6901 17.5925 12.6901H17.586C17.5404 12.6966 17.4883 12.7096 17.4493 12.7357L16.5313 13.3607L16.2188 6.056C16.2123 5.91277 16.0951 5.80209 15.9584 5.80209C15.8217 5.80209 15.7045 5.90626 15.698 6.056L15.3985 13.2695L14.6172 12.7422C14.5196 12.6706 14.3829 12.6836 14.2917 12.7682C14.2006 12.8529 14.1875 12.9896 14.2396 13.0938L14.7995 14.0247L13.6276 14.2656C13.5105 14.2917 13.4258 14.3958 13.4258 14.5195C13.4258 14.6432 13.517 14.7539 13.6276 14.78L14.7995 15.0274L14.2396 15.9518C14.2266 15.9909 14.2071 16.043 14.2071 16.082C14.2071 16.1537 14.2396 16.2188 14.2852 16.2774C14.3373 16.3164 14.4024 16.3425 14.4675 16.3425C14.5131 16.3425 14.5717 16.3294 14.6107 16.3034L15.2878 15.8412L15.1967 17.9766C13.9011 17.7096 12.8529 16.7461 12.4688 15.4831C12.1368 14.4024 12.3256 13.2435 12.9636 12.3255C13.1394 12.0716 13.1133 11.7201 12.905 11.4987C11.8243 10.3594 11.4987 8.69272 12.0521 7.23439C12.1302 7.03256 11.9024 6.81772 11.7266 6.94142C10.7305 7.65105 9.92973 8.60808 9.39587 9.71485L11.1146 11.4401C11.3164 11.6419 11.3164 11.9675 11.1146 12.1693C10.9128 12.3711 10.5873 12.3711 10.3855 12.1693V12.1563Z" fill="currentColor"/>
</g>
<defs>
<clipPath id="clip0_6_117">
<rect width="29.1667" height="33.3333" fill="currentColor" transform="translate(0.333374 0.333344)"/>
</clipPath>
</defs>
</svg>
